<svg width="29" height="29" viewBox="0 0 29 29" fill="none" xmlns="http://www.w3.org/2000/svg">
<path d="M10.5285 9.71562L18.4532 9.0223C18.535 9.0151 18.6174 9.02409 18.6958 9.04877C18.7741 9.07344 18.8468 9.11332 18.9097 9.16612C18.9727 9.21891 19.0246 9.28359 19.0625 9.35645C19.1004 9.42932 19.1235 9.50894 19.1307 9.59077L19.824 17.5154C19.8384 17.6807 19.7867 17.8449 19.6801 17.9719C19.5734 18.099 19.4207 18.1785 19.2555 18.1929C19.0903 18.2074 18.9261 18.1556 18.799 18.049C18.672 17.9424 18.5925 17.7897 18.578 17.6245L18.0168 11.2027L10.1481 20.5801C10.0416 20.7071 9.88896 20.7866 9.72383 20.801C9.55871 20.8154 9.3946 20.7637 9.26762 20.6572C9.14064 20.5506 9.06119 20.398 9.04674 20.2329C9.03229 20.0677 9.08404 19.9036 9.19058 19.7766L17.0592 10.3992L10.6375 10.9616C10.4723 10.976 10.3081 10.9242 10.181 10.8176C10.054 10.711 9.9745 10.5583 9.96004 10.3931C9.94559 10.2279 9.99736 10.0637 10.104 9.93662C10.2106 9.80957 10.3633 9.73008 10.5285 9.71562Z" fill="white"/>
</svg>
