<svg width="22" height="22" viewBox="0 0 22 22" fill="none" xmlns="http://www.w3.org/2000/svg">
<path d="M8.68125 14.0066C8.50708 14.0066 8.33292 13.9424 8.19542 13.8049C7.44375 13.0533 7.03125 12.0541 7.03125 10.9999C7.03125 8.80909 8.80958 7.03076 11.0004 7.03076C12.0546 7.03076 13.0538 7.44326 13.8054 8.19493C13.9338 8.32326 14.0071 8.49743 14.0071 8.68076C14.0071 8.8641 13.9338 9.03826 13.8054 9.16659L9.16708 13.8049C9.02958 13.9424 8.85542 14.0066 8.68125 14.0066ZM11.0004 8.40576C9.57042 8.40576 8.40625 9.56993 8.40625 10.9999C8.40625 11.4583 8.52542 11.8983 8.74542 12.2833L12.2837 8.74493C11.8987 8.52493 11.4587 8.40576 11.0004 8.40576Z" fill="#3B3E42"/>
<path d="M5.13319 16.9673C4.97736 16.9673 4.81236 16.9123 4.68402 16.8023C3.70319 15.9681 2.82319 14.9414 2.07152 13.7498C1.09986 12.2373 1.09986 9.77145 2.07152 8.24978C4.30819 4.74811 7.56236 2.73145 10.9999 2.73145C13.0165 2.73145 15.0057 3.42811 16.7474 4.73895C17.0499 4.96811 17.114 5.39895 16.8849 5.70145C16.6557 6.00395 16.2249 6.06811 15.9224 5.83895C14.419 4.70228 12.714 4.10645 10.9999 4.10645C8.03902 4.10645 5.20652 5.88478 3.22652 8.99228C2.53902 10.0648 2.53902 11.9348 3.22652 13.0073C3.91402 14.0798 4.70236 15.0056 5.57319 15.7573C5.85736 16.0048 5.89402 16.4356 5.64652 16.7289C5.51819 16.8848 5.32569 16.9673 5.13319 16.9673Z" fill="#3B3E42"/>
<path d="M11.0003 19.2685C9.78118 19.2685 8.58951 19.021 7.44368 18.5352C7.09534 18.3885 6.93034 17.9852 7.07701 17.6369C7.22368 17.2885 7.62701 17.1235 7.97534 17.2702C8.94701 17.6827 9.96451 17.8935 10.9912 17.8935C13.952 17.8935 16.7845 16.1152 18.7645 13.0077C19.452 11.9352 19.452 10.0652 18.7645 8.9927C18.4803 8.54354 18.1687 8.1127 17.8387 7.70937C17.6003 7.41604 17.6462 6.9852 17.9395 6.7377C18.2328 6.49937 18.6637 6.53604 18.9112 6.83854C19.2687 7.27854 19.617 7.7552 19.9287 8.2502C20.9003 9.7627 20.9003 12.2285 19.9287 13.7502C17.692 17.2519 14.4378 19.2685 11.0003 19.2685Z" fill="#3B3E42"/>
<path d="M11.6326 14.914C11.3118 14.914 11.0184 14.6848 10.9543 14.3548C10.8809 13.979 11.1284 13.6215 11.5043 13.5573C12.5126 13.374 13.3559 12.5307 13.5393 11.5223C13.6126 11.1465 13.9701 10.9082 14.3459 10.9723C14.7218 11.0457 14.9693 11.4032 14.8959 11.779C14.6026 13.3648 13.3376 14.6207 11.7609 14.914C11.7151 14.9048 11.6784 14.914 11.6326 14.914Z" fill="#3B3E42"/>
<path d="M1.83365 20.854C1.65948 20.854 1.48531 20.7898 1.34781 20.6523C1.08198 20.3865 1.08198 19.9465 1.34781 19.6807L8.19531 12.8332C8.46115 12.5673 8.90115 12.5673 9.16698 12.8332C9.43281 13.099 9.43281 13.539 9.16698 13.8048L2.31948 20.6523C2.18198 20.7898 2.00781 20.854 1.83365 20.854Z" fill="#3B3E42"/>
<path d="M13.319 9.36816C13.1448 9.36816 12.9707 9.30399 12.8332 9.16649C12.5673 8.90066 12.5673 8.46066 12.8332 8.19482L19.6807 1.34732C19.9465 1.08149 20.3865 1.08149 20.6523 1.34732C20.9182 1.61316 20.9182 2.05316 20.6523 2.31899L13.8048 9.16649C13.6673 9.30399 13.4932 9.36816 13.319 9.36816Z" fill="#3B3E42"/>
</svg>
