<svg width="66" height="53" viewBox="0 0 66 53" fill="none" xmlns="http://www.w3.org/2000/svg">
<ellipse cx="33" cy="26.5" rx="26" ry="26.5" fill="#2A2D74"/>
<path d="M44.7245 31.9925C44.0308 30.7975 42.9995 27.4163 42.9995 23C42.9995 20.3478 41.946 17.8043 40.0706 15.9289C38.1952 14.0536 35.6517 13 32.9995 13C30.3474 13 27.8038 14.0536 25.9285 15.9289C24.0531 17.8043 22.9995 20.3478 22.9995 23C22.9995 27.4175 21.967 30.7975 21.2733 31.9925C21.0961 32.2963 21.0022 32.6415 21.001 32.9931C20.9998 33.3448 21.0913 33.6906 21.2664 33.9956C21.4415 34.3006 21.6939 34.5541 21.9982 34.7304C22.3024 34.9068 22.6478 34.9997 22.9995 35H28.1008C28.3315 36.1289 28.9451 37.1436 29.8377 37.8722C30.7303 38.6009 31.8472 38.9989 32.9995 38.9989C34.1518 38.9989 35.2687 38.6009 36.1614 37.8722C37.054 37.1436 37.6676 36.1289 37.8983 35H42.9995C43.3511 34.9995 43.6964 34.9064 44.0005 34.73C44.3046 34.5535 44.5568 34.3 44.7317 33.9951C44.9066 33.6901 44.9981 33.3444 44.9968 32.9928C44.9956 32.6412 44.9016 32.2962 44.7245 31.9925ZM32.9995 37C32.3793 36.9998 31.7744 36.8074 31.268 36.4492C30.7617 36.0911 30.3788 35.5848 30.172 35H35.827C35.6203 35.5848 35.2374 36.0911 34.731 36.4492C34.2247 36.8074 33.6198 36.9998 32.9995 37ZM22.9995 33C23.962 31.345 24.9995 27.51 24.9995 23C24.9995 20.8783 25.8424 18.8434 27.3427 17.3431C28.843 15.8429 30.8778 15 32.9995 15C35.1213 15 37.1561 15.8429 38.6564 17.3431C40.1567 18.8434 40.9995 20.8783 40.9995 23C40.9995 27.5063 42.0345 31.3412 42.9995 33H22.9995Z" fill="white"/>
</svg>
