<svg width="100" height="101" viewBox="0 0 100 101" fill="none" xmlns="http://www.w3.org/2000/svg">
<circle cx="50" cy="50.5" r="50" fill="#E0E1FF"/>
<path d="M67.1875 34.875H59.375V33.3125C59.375 32.0693 58.8811 30.877 58.0021 29.9979C57.123 29.1189 55.9307 28.625 54.6875 28.625H45.3125C44.0693 28.625 42.877 29.1189 41.9979 29.9979C41.1189 30.877 40.625 32.0693 40.625 33.3125V34.875H32.8125C32.3981 34.875 32.0007 35.0396 31.7076 35.3326C31.4146 35.6257 31.25 36.0231 31.25 36.4375C31.25 36.8519 31.4146 37.2493 31.7076 37.5424C32.0007 37.8354 32.3981 38 32.8125 38H34.375V66.125C34.375 66.9538 34.7042 67.7487 35.2903 68.3347C35.8763 68.9208 36.6712 69.25 37.5 69.25H62.5C63.3288 69.25 64.1237 68.9208 64.7097 68.3347C65.2958 67.7487 65.625 66.9538 65.625 66.125V38H67.1875C67.6019 38 67.9993 37.8354 68.2924 37.5424C68.5854 37.2493 68.75 36.8519 68.75 36.4375C68.75 36.0231 68.5854 35.6257 68.2924 35.3326C67.9993 35.0396 67.6019 34.875 67.1875 34.875ZM43.75 33.3125C43.75 32.8981 43.9146 32.5007 44.2076 32.2076C44.5007 31.9146 44.8981 31.75 45.3125 31.75H54.6875C55.1019 31.75 55.4993 31.9146 55.7924 32.2076C56.0854 32.5007 56.25 32.8981 56.25 33.3125V34.875H43.75V33.3125ZM62.5 66.125H37.5V38H62.5V66.125ZM46.875 45.8125V58.3125C46.875 58.7269 46.7104 59.1243 46.4174 59.4174C46.1243 59.7104 45.7269 59.875 45.3125 59.875C44.8981 59.875 44.5007 59.7104 44.2076 59.4174C43.9146 59.1243 43.75 58.7269 43.75 58.3125V45.8125C43.75 45.3981 43.9146 45.0007 44.2076 44.7076C44.5007 44.4146 44.8981 44.25 45.3125 44.25C45.7269 44.25 46.1243 44.4146 46.4174 44.7076C46.7104 45.0007 46.875 45.3981 46.875 45.8125ZM56.25 45.8125V58.3125C56.25 58.7269 56.0854 59.1243 55.7924 59.4174C55.4993 59.7104 55.1019 59.875 54.6875 59.875C54.2731 59.875 53.8757 59.7104 53.5826 59.4174C53.2896 59.1243 53.125 58.7269 53.125 58.3125V45.8125C53.125 45.3981 53.2896 45.0007 53.5826 44.7076C53.8757 44.4146 54.2731 44.25 54.6875 44.25C55.1019 44.25 55.4993 44.4146 55.7924 44.7076C56.0854 45.0007 56.25 45.3981 56.25 45.8125Z" fill="#2A2D74"/>
</svg>
