<svg width="22" height="24" viewBox="0 0 22 24" fill="none" xmlns="http://www.w3.org/2000/svg">
<path d="M19.5353 6.87821L15.6948 2.68946C15.5671 2.55014 15.4155 2.43962 15.2487 2.36421C15.0818 2.28881 14.903 2.25 14.7224 2.25C14.5418 2.25 14.363 2.28881 14.1961 2.36421C14.0293 2.43962 13.8777 2.55014 13.75 2.68946L3.15305 14.2498C3.02482 14.3886 2.92315 14.5538 2.85396 14.7358C2.78476 14.9178 2.74943 15.113 2.75001 15.3101V19.4998C2.75001 19.8976 2.89487 20.2791 3.15274 20.5604C3.4106 20.8417 3.76033 20.9998 4.12501 20.9998H18.5625C18.7448 20.9998 18.9197 20.9208 19.0486 20.7801C19.1776 20.6395 19.25 20.4487 19.25 20.2498C19.25 20.0509 19.1776 19.8601 19.0486 19.7194C18.9197 19.5788 18.7448 19.4998 18.5625 19.4998H9.91032L19.5353 8.99977C19.663 8.86048 19.7643 8.69511 19.8335 8.5131C19.9026 8.33108 19.9382 8.136 19.9382 7.93899C19.9382 7.74198 19.9026 7.5469 19.8335 7.36489C19.7643 7.18288 19.663 7.0175 19.5353 6.87821ZM11.6875 7.06009L13.1218 8.62477L5.84376 16.5645L4.40946 14.9998L11.6875 7.06009ZM4.12501 19.4998V16.8101L6.59055 19.4998H4.12501ZM8.25001 19.1895L6.81657 17.6248L14.0938 9.68508L15.5281 11.2498L8.25001 19.1895ZM16.5 10.1895L12.6603 5.99977L14.7228 3.74977L18.5625 7.93946L16.5 10.1895Z" fill="#2A2D74"/>
</svg>
