<svg width="29" height="29" viewBox="0 0 29 29" fill="none" xmlns="http://www.w3.org/2000/svg">
<path d="M10.5285 19.2844L18.4532 19.9777C18.535 19.9849 18.6174 19.9759 18.6958 19.9512C18.7741 19.9266 18.8468 19.8867 18.9097 19.8339C18.9727 19.7811 19.0246 19.7164 19.0625 19.6435C19.1004 19.5707 19.1235 19.4911 19.1307 19.4092L19.824 11.4846C19.8384 11.3193 19.7867 11.1551 19.6801 11.0281C19.5734 10.901 19.4207 10.8215 19.2555 10.8071C19.0903 10.7926 18.9261 10.8444 18.799 10.951C18.672 11.0576 18.5925 11.2103 18.578 11.3755L18.0168 17.7973L10.1481 8.41988C10.0416 8.2929 9.88896 8.21344 9.72383 8.199C9.55871 8.18455 9.3946 8.23629 9.26762 8.34284C9.14064 8.44939 9.06119 8.60202 9.04674 8.76715C9.03229 8.93228 9.08404 9.09638 9.19058 9.22336L17.0592 18.6008L10.6375 18.0384C10.4723 18.024 10.3081 18.0758 10.181 18.1824C10.054 18.289 9.9745 18.4417 9.96004 18.6069C9.94559 18.7721 9.99736 18.9363 10.104 19.0634C10.2106 19.1904 10.3633 19.2699 10.5285 19.2844Z" fill="#FF0A0A"/>
</svg>
