<svg width="150" height="150" viewBox="0 0 150 150" fill="none" xmlns="http://www.w3.org/2000/svg">
<circle cx="75" cy="75" r="75" fill="#2A2D74"/>
<path d="M107.163 101.25C102.403 93.0216 95.0689 87.1216 86.5095 84.3247C90.7433 81.8043 94.0328 77.9637 95.8727 73.3928C97.7125 68.8219 98.0011 63.7735 96.694 59.0227C95.387 54.2719 92.5566 50.0816 88.6375 47.0951C84.7185 44.1086 79.9274 42.4912 75.0001 42.4912C70.0728 42.4912 65.2818 44.1086 61.3627 47.0951C57.4436 50.0816 54.6132 54.2719 53.3062 59.0227C51.9991 63.7735 52.2877 68.8219 54.1276 73.3928C55.9674 77.9637 59.2569 81.8043 63.4907 84.3247C54.9314 87.1185 47.597 93.0185 42.8376 101.25C42.6631 101.534 42.5473 101.851 42.4971 102.181C42.447 102.511 42.4634 102.848 42.5455 103.171C42.6276 103.495 42.7737 103.799 42.9751 104.065C43.1765 104.331 43.4292 104.555 43.7183 104.722C44.0074 104.889 44.327 104.996 44.6583 105.037C44.9895 105.079 45.3257 105.054 45.6471 104.963C45.9684 104.872 46.2683 104.718 46.5291 104.51C46.79 104.302 47.0064 104.043 47.1657 103.75C53.0532 93.5747 63.4595 87.4997 75.0001 87.4997C86.5407 87.4997 96.947 93.5747 102.834 103.75C102.994 104.043 103.21 104.302 103.471 104.51C103.732 104.718 104.032 104.872 104.353 104.963C104.674 105.054 105.011 105.079 105.342 105.037C105.673 104.996 105.993 104.889 106.282 104.722C106.571 104.555 106.824 104.331 107.025 104.065C107.227 103.799 107.373 103.495 107.455 103.171C107.537 102.848 107.553 102.511 107.503 102.181C107.453 101.851 107.337 101.534 107.163 101.25ZM57.5001 64.9997C57.5001 61.5385 58.5265 58.1551 60.4494 55.2772C62.3723 52.3994 65.1054 50.1564 68.3032 48.8318C71.5009 47.5073 75.0195 47.1607 78.4142 47.836C81.8089 48.5112 84.9271 50.1779 87.3745 52.6253C89.8219 55.0728 91.4886 58.191 92.1639 61.5856C92.8391 64.9803 92.4925 68.499 91.168 71.6967C89.8435 74.8944 87.6005 77.6275 84.7226 79.5504C81.8447 81.4734 78.4613 82.4997 75.0001 82.4997C70.3603 82.4948 65.912 80.6494 62.6312 77.3686C59.3504 74.0878 57.5051 69.6395 57.5001 64.9997Z" fill="white"/>
</svg>
