<svg width="30" height="29" viewBox="0 0 30 29" fill="none" xmlns="http://www.w3.org/2000/svg">
<path d="M11.4396 9.71562L19.3643 9.0223C19.4461 9.0151 19.5286 9.02409 19.6069 9.04877C19.6853 9.07344 19.758 9.11332 19.8209 9.16612C19.8838 9.21891 19.9357 9.28359 19.9736 9.35645C20.0115 9.42932 20.0347 9.50894 20.0418 9.59077L20.7351 17.5154C20.7496 17.6807 20.6978 17.8449 20.5912 17.9719C20.4846 18.099 20.3319 18.1785 20.1666 18.1929C20.0014 18.2074 19.8372 18.1556 19.7102 18.049C19.5831 17.9424 19.5036 17.7897 19.4892 17.6245L18.9279 11.2027L11.0593 20.5801C10.9527 20.7071 10.8001 20.7866 10.635 20.801C10.4698 20.8154 10.3057 20.7637 10.1788 20.6572C10.0518 20.5506 9.97232 20.398 9.95787 20.2329C9.94343 20.0677 9.99517 19.9036 10.1017 19.7766L17.9703 10.3992L11.5486 10.9616C11.3834 10.976 11.2192 10.9242 11.0922 10.8176C10.9651 10.711 10.8856 10.5583 10.8712 10.3931C10.8567 10.2279 10.9085 10.0637 11.0151 9.93662C11.1217 9.80957 11.2744 9.73008 11.4396 9.71562Z" fill="#2A2D74"/>
</svg>
