<svg width="22" height="24" viewBox="0 0 22 24" fill="none" xmlns="http://www.w3.org/2000/svg">
<path d="M18.5625 4.5H15.125V3.75C15.125 3.15326 14.9077 2.58097 14.5209 2.15901C14.1341 1.73705 13.6095 1.5 13.0625 1.5H8.9375C8.39049 1.5 7.86589 1.73705 7.47909 2.15901C7.0923 2.58097 6.875 3.15326 6.875 3.75V4.5H3.4375C3.25516 4.5 3.0803 4.57902 2.95136 4.71967C2.82243 4.86032 2.75 5.05109 2.75 5.25C2.75 5.44891 2.82243 5.63968 2.95136 5.78033C3.0803 5.92098 3.25516 6 3.4375 6H4.125V19.5C4.125 19.8978 4.26987 20.2794 4.52773 20.5607C4.78559 20.842 5.13533 21 5.5 21H16.5C16.8647 21 17.2144 20.842 17.4723 20.5607C17.7301 20.2794 17.875 19.8978 17.875 19.5V6H18.5625C18.7448 6 18.9197 5.92098 19.0486 5.78033C19.1776 5.63968 19.25 5.44891 19.25 5.25C19.25 5.05109 19.1776 4.86032 19.0486 4.71967C18.9197 4.57902 18.7448 4.5 18.5625 4.5ZM8.25 3.75C8.25 3.55109 8.32243 3.36032 8.45136 3.21967C8.5803 3.07902 8.75516 3 8.9375 3H13.0625C13.2448 3 13.4197 3.07902 13.5486 3.21967C13.6776 3.36032 13.75 3.55109 13.75 3.75V4.5H8.25V3.75ZM16.5 19.5H5.5V6H16.5V19.5ZM9.625 9.75V15.75C9.625 15.9489 9.55257 16.1397 9.42364 16.2803C9.2947 16.421 9.11984 16.5 8.9375 16.5C8.75516 16.5 8.5803 16.421 8.45136 16.2803C8.32243 16.1397 8.25 15.9489 8.25 15.75V9.75C8.25 9.55109 8.32243 9.36032 8.45136 9.21967C8.5803 9.07902 8.75516 9 8.9375 9C9.11984 9 9.2947 9.07902 9.42364 9.21967C9.55257 9.36032 9.625 9.55109 9.625 9.75ZM13.75 9.75V15.75C13.75 15.9489 13.6776 16.1397 13.5486 16.2803C13.4197 16.421 13.2448 16.5 13.0625 16.5C12.8802 16.5 12.7053 16.421 12.5764 16.2803C12.4474 16.1397 12.375 15.9489 12.375 15.75V9.75C12.375 9.55109 12.4474 9.36032 12.5764 9.21967C12.7053 9.07902 12.8802 9 13.0625 9C13.2448 9 13.4197 9.07902 13.5486 9.21967C13.6776 9.36032 13.75 9.55109 13.75 9.75Z" fill="#2A2D74"/>
</svg>
